<?xml version="1.0" encoding="UTF-8" standalone="no"?>
<svg xmlns="http://www.w3.org/2000/svg" width="200" height="69">
  <g id="g1" transform="matrix(2 0 0 2 106 -2323.5)">
    <path id="path1" fill="#f5efbc" stroke="#000" stroke-linecap="round" stroke-linejoin="round" stroke-width="1.8" d="M-51.39745 1163.0948h85v29.5252h-85l2-14.7626z"/>
    <path id="path2" fill="#f5efbc" stroke="#000" stroke-linecap="round" stroke-linejoin="round" stroke-width="1.8" d="M19.61576 1166.8577v24.625c0 2.002 5.8203 3.625 13 3.625s13-1.623 13-3.625v-24.625z"/>
    <path id="path3" fill="#f5efbc" stroke="#000" stroke-linecap="round" stroke-linejoin="round" stroke-width="1.8" d="M45.61576 1166.69164c0 2.00203-5.8203 3.625-13 3.625s-13-1.62297-13-3.625 5.8203-3.625 13-3.625 13 1.62297 13 3.625z"/>
    <path id="path4" fill="#2e439b" stroke="#000" stroke-linecap="butt" stroke-linejoin="miter" stroke-miterlimit="4" stroke-width="1.4" d="M45.06778 1167.3815c-2.44864 5.5993-9.9067 7.192-21.52831 5.7955l5.7779 9.7599-6.02275 7.2171c7.75095 3.1192 17.18643 1.5723 22.07112-.1842z"/>
    <path id="path5" fill="none" stroke="#000" stroke-linecap="round" stroke-linejoin="round" stroke-width="1.4" d="M34.45935 1165.7653c-3.4695-.1017-8.01646.018-10.47747.7778 1.2102.9782 6.11198 1.5627 9.94714 1.2348 3.20297-.2738 6.08198-.1311 7.93857-1.1503-.70667-1.1077-3.93837-3.3774-7.91865-3.2613"/>
    <g id="text1" fill="#000" stroke="none" transform="scale(.90246 1.10808)">
      <path id="path6" d="M-31.244117 1065.327c-.454105.097-.733829.1948-.839171.2919-.105377.097-.158057.2918-.15804.5836v3.9629c-.729128.2755-1.401601.5065-2.017421.693-.615852.1865-1.207451.3363-1.774797.4496-.567375.1133-1.126574.1943-1.677599.243-.55105.049-1.134734.073-1.751054.073-1.442403 0-2.747159-.2107-3.914273-.6322-1.167128-.4214-2.163966-1.0171-2.990519-1.787-.826559-.7699-1.466757-1.6979-1.920594-2.7839-.453841-1.086-.680761-2.3015-.680759-3.6464-.000002-1.3133.230999-2.4927.693001-3.5381.461999-1.0454 1.130639-1.9328 2.005922-2.6622.875275-.7293 1.932831-1.2885 3.172672-1.6776 1.239827-.389 2.637825-.5835 4.193997-.5836.599501.0001 1.162658.02 1.68947.061.526787.041 1.041467.1055 1.544044.1948.502547.089 1.005109.2067 1.507687.3524.502546.1457 1.03726.3239 1.604143.5346l.146169.2678c-.04849.2271-.09301.4419-.133555.6444-.04058.2026-.08114.4335-.121684.6927-.04058.2592-.0851.5753-.133554.9482-.04849.373-.105378.8511-.170654 1.4342h-.94824l-.120942-2.0908c-.145937-.1459-.279739-.2675-.401407-.3647-.121699-.097-.23522-.1823-.340565-.2553-.105375-.073-.218773-.1418-.340194-.2066-.121451-.065-.263291-.1296-.425521-.1944-.5189-.2107-1.078099-.3728-1.677599-.4864-.599525-.1135-1.199285-.1702-1.799282-.1702-1.99344 0-3.541316.5957-4.643631 1.787-1.102329 1.1914-1.65349 2.8731-1.653485 5.045-.000005 1.1669.158035 2.2245.47412 3.1727.316075.9483.757795 1.7628 1.325162 2.4437.567354.6809 1.256274 1.2077 2.066763 1.5804.810471.3727 1.70195.5591 2.674438.5591.518379 0 1.008575-.044 1.470589-.1336.461988-.089 1.000906-.2471 1.616757-.4741v-3.2098c-.000015-.324-.101294-.5467-.303838-.6681-.202572-.1214-.563046-.1985-1.081424-.2311l-1.288805-.048v-.9972c.518873.016.960593.029 1.325162.037.364542.01.676541.016.935997.024.259429.01.486348.012.68076.012h1.105909c.202542 0 .441704 0 .717487-.012.275749-.01.604072-.016.984968-.024.380861-.01.838657-.02 1.37339-.037z"/>
      <path id="path7" d="M-23.706424 1062.0445c.24336.033.474361.049.693002.049h2.176203c.518382 0 .870818-.036 1.057311-.1095.186472-.073.295789-.2066.327951-.401l.146169-1.2888h.972725c-.01634.4699-.02858.8508-.03673 1.1426-.0082.2919-.01633.527-.02449.7053-.0082.1783-.01225.3161-.01224.4132-.000012.097-.000012.1782 0 .243l.07345 2.6259h-.972725l-.146169-1.2154c-.03216-.3245-.153598-.5556-.364308-.6933-.21073-.1378-.551047-.2067-1.020954-.2067h-1.239835c-.276021 0-.531506 0-.766457.012-.234964.01-.522602.029-.862913.061v4.546c-.000006.5352.0082.9527.02448 1.2525.01632.2997.06096.5267.133926.6807.07295.1541.190433.2514.352436.292.161991.041.380749.069.656275.085l1.142637.073v.972c-.56737-.016-1.057689-.028-1.47096-.036-.413285-.01-.777964-.016-1.094038-.024-.316085-.01-.587523-.012-.814314-.012h-1.312919c-.227047 0-.48649 0-.778329.012-.291845.01-.628205.016-1.009082.024-.380881.01-.822353.02-1.32442.036v-.972l.89927-.073c.291841-.016.514679-.048.668517-.097.153833-.049.267231-.1461.340194-.292.07296-.1459.1176-.3688.133926-.6685.01632-.2998.02448-.7173.02448-1.2525v-9.9194c-.000003-.5347-.0082-.9561-.02448-1.2643-.01633-.3082-.06493-.5392-.145798-.693-.08088-.1538-.198356-.2551-.352436-.3039-.154085-.049-.368886-.089-.644403-.1213l-.89927-.073v-.8993c.599512.016 1.122107.029 1.567787.037.445675.01.838672.016 1.178993.024.340314.01.636114.012.887399.012h1.15525c.129593 0 .332151 0 .607675-.012.275513-.01.66851-.016 1.178994-.024.510469-.01 1.227708-.02 2.151719-.037h1.239835c.470399 0 .859563 0 1.167493.012.307906.01.688661.028 1.142266.06l.146168.1707-.340565 3.4524h-.874785l-.195138-1.8238c-.01584-.1459-.262917-.2593-.741231-.3402-.478335-.081-1.130775-.1213-1.957322-.1213h-.63216c-.194405 0-.396963 0-.607675.012-.210727.01-.441728.016-.693002.024-.251288.01-.547087.02-.887398.037z"/>
      <path id="path8" d="M-13.916844 1070.2871c.178071-.098.303588-.2516.376551-.4623.07296-.2107.109438-.5186.109441-.9237v-10.8922c-.000003-.5347-.008-.9561-.02411-1.2643-.01608-.3082-.06468-.5392-.145798-.693-.08113-.1538-.198727-.2551-.352807-.3039-.154085-.049-.368886-.089-.644403-.1213l-.89927-.073v-.8993c1.183196.033 2.070593.053 2.662195.061.591595.01 1.025154.012 1.300677.012l2.5041559-.024c.7617498-.016 1.4141899-.029 1.9573221-.037.5431137-.01.9605962-.012 1.2524488-.012 1.636778 0 2.9860528.1621 4.0478282.4864 1.06174635.3242 1.94926764.8348 2.66256659 1.5318.61581891.5995 1.08177691 1.3572 1.39787521 2.273.3160612.9159.474101 1.9572.4741202 3.1241-.0000192 2.6261-.8347368 4.7575-2.50415556 6.3943-.92401815.9077-2.02225924 1.6046-3.29472674 2.0909-1.272494.4862-2.6217687.7293-4.0478282.7293h-.6566453c-.2592039 0-.5347225-.01-.8265568-.024-.4051241-.016-.8144449-.029-1.2279636-.037-.4135318-.01-.7822918-.012-1.1062808-.012-.356646 0-.814566.01-1.373761.024-.559203.016-1.365602.032-2.419199.048v-.5587zm3.913903-.4623c.3081586.049.5757629.082.8028133.098.227036.016.5025547.024.8265568.024 1.3939087 0 2.5406253-.1337 3.4401532-.401.8995051-.2674 1.6571814-.709 2.2730312-1.3248 1.1831832-1.1674 1.77478162-2.9909 1.77479708-5.4706-.00001546-1.2158-.12961308-2.2411-.38879338-3.0758-.2592103-.8347-.6643266-1.5195-1.2153501-2.0542-.2107337-.227-.4335724-.4176-.6685168-.5717-.2349707-.154-.4822945-.2877-.741972-.401-.5347264-.227-1.2194422-.4135-2.0541495-.5595-.834728-.1459-1.6816882-.2188-2.5408831-.2188-.2918499 0-.547088.01-.7657151.024-.2186413.016-.4659651.041-.7419716.073z"/>
      <path id="path9" d="M10.324121 1069.8003c.647982.033 1.243537.053 1.786669.061.543114.01 1.187393.012 1.932837.012.259185 0 .526542-.012.802071-.037.275508-.024.526789-.057.753844-.097.227031-.04.413514-.085.559447-.1336.145909-.049.227031-.097.243367-.1458l.558705-2.4804h.94824l-.26711 4.0363-.121683.1944c-.340332.016-.64825.033-.923756.049-.275531.016-.543012.028-.802442.036-.259455.01-.522855.012-.790201.012h-.887769c-1.102085 0-2.414879-.024-3.938387-.073-.4214464-.016-.7293645-.024-.9237556-.024H8.1234321c-.170163 0-.368764 0-.5958036.012-.2270468.01-.4945274.016-.8024427.024-.3079209.01-.6725998.02-1.0940377.036v-.5587l.7783286-.4377c.1780706-.098.3035874-.2475.3765508-.45.072958-.2026.1094379-.5146.1094409-.936v-10.8922c-.000003-.5347-.00804-.9521-.024114-1.2521-.016079-.3-.060597-.5229-.133555-.6689-.072963-.1459-.1864849-.239-.3405651-.2793-.1540852-.04-.3770476-.077-.6688878-.1095l-.89927-.073v-.9727c.5025609.016.9442811.029 1.325162.037.3808763.01.7172366.016 1.0090819.024.2918387.01.5511577.012.7779576.012h1.3247911c.2349521 0 .4983519 0 .7902-.012.291836-.01.624115-.016.99684-.024.372709-.01.81851-.02 1.337404-.037v.9727l-.900012.073c-.291355.033-.51407.069-.668146.1095-.154089.04-.267611.1334-.340565.2793-.07297.146-.117485.3689-.133555.6689-.01608.3-.02412.7174-.02411 1.2521z"/>
    </g>
  </g>
</svg>